<?xml version="1.0" encoding="UTF-8"?>
<svg id="Layer_1" data-name="Layer 1" xmlns="http://www.w3.org/2000/svg" version="1.1" viewBox="0 0 512 512">
  <defs>
    <style>
      .cls-1 {
        fill: #f8ffe8;
        stroke-width: 0px;
      }
    </style>
  </defs>
  <path class="cls-1" d="M495.6,479.2H32.8V16.4C32.8,7.3,25.4,0,16.4,0S0,7.3,0,16.4v479.2c0,9.1,7.3,16.4,16.4,16.4h479.2c9.1,0,16.4-7.3,16.4-16.4s-7.3-16.4-16.4-16.4Z"/>
  <path class="cls-1" d="M75.1,459.7h95.4c9.1,0,16.4-7.3,16.4-16.4V140.9c0-9.1-7.3-16.4-16.4-16.4h-95.4c-9.1,0-16.4,7.3-16.4,16.4v302.4c0,9.1,7.3,16.4,16.4,16.4h0ZM91.5,157.3h62.6v269.6h-62.6V157.3Z"/>
  <path class="cls-1" d="M231.9,459.7h95.4c9.1,0,16.4-7.3,16.4-16.4V29.1c0-9.1-7.3-16.4-16.4-16.4h-95.4c-9.1,0-16.4,7.3-16.4,16.4v414.2c0,9.1,7.3,16.4,16.4,16.4ZM248.3,45.5h62.6v381.4h-62.6V45.5Z"/>
  <path class="cls-1" d="M388.7,459.7h95.4c9.1,0,16.4-7.3,16.4-16.4v-229.8c0-9.1-7.3-16.4-16.4-16.4h-95.4c-9.1,0-16.4,7.3-16.4,16.4v229.8c0,9.1,7.3,16.4,16.4,16.4ZM405,229.9h62.6v197h-62.6v-197Z"/>
</svg>