<svg id="Layer_1" enable-background="new 0 0 499.687 499.687" height="512" viewBox="0 0 499.687 499.687" width="512" xmlns="http://www.w3.org/2000/svg"><path d="m483.686 467.687h-451.686v-451.687c0-8.836-7.163-16-16-16s-16 7.164-16 16v467.687c0 8.836 7.163 16 16 16h467.686c8.837 0 16-7.164 16-16s-7.163-16-16-16z"/><path d="m73.282 448.601h93.099c8.837 0 16-7.164 16-16v-295.089c0-8.836-7.163-16-16-16h-93.099c-8.837 0-16 7.164-16 16v295.088c0 8.837 7.163 16.001 16 16.001zm16-295.089h61.099v263.088h-61.099z"/><path d="m226.294 448.601h93.099c8.837 0 16-7.164 16-16v-404.23c0-8.836-7.163-16-16-16h-93.099c-8.837 0-16 7.164-16 16v404.23c0 8.836 7.164 16 16 16zm16-404.23h61.099v372.23h-61.099z"/><path d="m379.308 448.601h93.099c8.837 0 16-7.164 16-16v-224.229c0-8.836-7.163-16-16-16h-93.099c-8.837 0-16 7.164-16 16v224.229c0 8.836 7.163 16 16 16zm16-224.229h61.099v192.229h-61.099z"/></svg>