<svg width="221" height="335" viewBox="0 0 221 335" fill="none" xmlns="http://www.w3.org/2000/svg">
<g filter="url(#filter0_d_3_96)">
<circle cx="242" cy="93" r="200" fill="#D9D9D9"/>
</g>
<g clip-path="url(#clip0_3_96)">
<g filter="url(#filter1_d_3_96)">
<path d="M412.272 176.9C460.606 77.8866 421.543 -40.5763 325.022 -87.6948C228.5 -134.813 111.071 -92.7443 62.7363 6.2687C14.4017 105.282 53.4648 223.745 149.986 270.863C246.508 317.981 363.937 275.913 412.272 176.9Z" fill="#F2FBFD"/>
<path d="M215.11 256.97C201.53 264.5 182.86 252.97 186.53 239.3C190.94 222.89 215.18 222.98 222.65 237.09C226.81 244.94 222.27 253 215.11 256.98V256.97Z" fill="#7584BB"/>
<path d="M317.6 210.88C326.37 214.72 321.78 216.02 328.68 222.49C326.09 230.7 340.13 236.89 342.64 223.11C344.5 225.66 344.47 229.23 349.94 230.39C351.53 230.73 367.75 224.8 358.72 235.91C340.15 252.33 325.24 261.36 302.22 270.34C299.89 265.24 294.78 267.47 294.21 267.05C292.92 266.09 297.41 258.6 286.72 252.54C298.41 245.83 306.94 235.08 306.73 221.07C283.97 238.97 272.63 223.97 259.29 238.22C247.19 227.45 247.51 238.93 243.06 247.97C242.85 248.4 239.21 252.1 238.62 253.25C237.97 254.52 237.57 271.19 220.47 270.74C219.91 264.19 214.81 263.53 215.11 256.96C222.27 252.99 226.8 244.93 222.65 237.07C215.18 222.96 190.94 222.88 186.53 239.28C181.49 241.86 180.69 236.18 174.8 237.27C171.77 237.83 173.34 241.38 170.56 237.06C170.107 237.353 169.653 237.65 169.2 237.95C169.03 246.15 167.18 236.56 165.51 230.26C164 209.85 165.01 186.95 169.15 166.92C170.42 160.79 172.26 154.23 173.96 148.18C189.19 154.52 190.83 149.17 198.89 148.57C222.04 146.82 222.05 163.65 223.22 164.79C224.68 166.22 235.37 163.86 235.92 164.17C237.43 165 238.03 183.52 259.55 185.63C266.56 186.32 281.19 177.84 283.07 195.87C306.2 192.4 297.46 212.14 303.95 216.61C309.26 220.26 320.09 217.97 317.6 210.87V210.88Z" fill="#B7BFDB"/>
<path d="M192.03 189.27C208.14 195.52 197.58 217.78 183.78 212.53C167.83 206.47 177.84 183.76 192.03 189.27Z" fill="#7584BB"/>
<path d="M302.21 270.35C277.59 279.95 251.59 284.85 225.08 283.54C222.01 282.6 216.24 281.75 213.37 283.4C208.58 280.88 202.13 281.52 196.64 280.19C188.88 278.32 181.02 276.23 173.4 273.81C172.48 268.07 170.49 262.56 169.25 256.9C167.2 247.53 166.21 239.81 165.51 230.27C167.18 236.57 169.03 246.16 169.2 237.96C169.653 237.667 170.107 237.37 170.56 237.07C173.33 241.39 171.77 237.84 174.8 237.28C180.7 236.19 181.49 241.87 186.53 239.29C182.86 252.96 201.53 264.5 215.11 256.96C214.81 263.53 219.91 264.19 220.47 270.74C237.57 271.19 237.97 254.52 238.62 253.25C239.21 252.1 242.84 248.41 243.06 247.97C247.51 238.93 247.2 227.45 259.29 238.22C272.63 223.97 283.97 238.97 306.73 221.07C306.93 235.08 298.41 245.83 286.72 252.54C297.41 258.6 292.92 266.09 294.21 267.05C294.78 267.47 299.88 265.24 302.22 270.34L302.21 270.35Z" fill="#A2ACD1"/>
<path d="M380.19 214.78C349.6 180.1 338.99 205.41 336.48 204.6C336.23 204.52 335.88 201.85 333.7 200.14C325.8 193.98 321.69 205.35 320.54 205.5C319.53 205.63 308.95 196.7 304.51 209.76C307.1 219.23 319.15 214.45 310.13 211.58C311.73 206.49 316.25 210.3 317.6 210.89C320.09 217.99 309.26 220.28 303.95 216.63C297.46 212.16 306.2 192.42 283.07 195.89C281.18 177.85 266.55 186.33 259.55 185.65C238.03 183.54 237.43 165.02 235.92 164.19C235.36 163.88 224.67 166.24 223.22 164.81C222.05 163.67 222.04 146.85 198.89 148.59C190.84 149.2 189.19 154.54 173.96 148.2C196.93 66.27 264.66 -33.83 345.11 -69.01C370 -51.31 394.93 -18.1 407.42 9.77998C437.58 77.09 427.98 158.06 380.21 214.78H380.19Z" fill="#DADEED"/>
<path d="M203.63 124.86C211.64 129.67 197.44 134.67 201.77 125.5L203.63 124.86Z" fill="#DADEED"/>
<path d="M169.25 256.9C170.49 262.56 172.47 268.07 173.4 273.81C144.54 264.64 119.62 250.37 99.19 227.66C91.33 218.92 78.75 199.93 72.91 189.4C53.76 154.93 45.46 117.11 48.92 77.86C57.34 84.39 52.47 91.21 52.52 102.25C52.64 131.77 59.29 123.83 62.11 127.7C62.37 128.05 60.88 132.38 62.19 136.42C63.16 139.41 69.42 145.83 69.39 146.45C69.34 147.39 64.95 152.45 71.68 164C77.1 173.32 83.78 174.38 84.25 175.1C84.84 176.01 81.24 178.44 81.2 181.98C81.16 185.47 87.65 190.01 87.89 190.51C89.34 193.67 82.95 198.06 99.56 212.33C122.49 232.03 155.16 231.15 145.87 246.41C139 248.5 139.18 249.17 151.54 253.21C156.87 254.95 163.86 255.24 169.27 256.9H169.25Z" fill="#0A0A0A"/>
<path d="M169.14 166.93C165 186.96 164 209.86 165.5 230.27C166.21 239.81 167.19 247.53 169.24 256.9C163.83 255.23 156.84 254.95 151.51 253.21C139.15 249.17 138.97 248.5 145.84 246.41C155.13 231.15 122.46 232.03 99.53 212.33C82.92 198.06 89.31 193.67 87.86 190.51C87.63 190.01 81.13 185.47 81.17 181.98C81.21 178.43 84.81 176 84.22 175.1C83.76 174.38 77.08 173.32 71.65 164C64.93 152.45 69.32 147.39 69.36 146.45C69.39 145.83 63.13 139.41 62.16 136.42C60.85 132.37 62.33 128.05 62.08 127.7C59.27 123.82 52.61 131.77 52.49 102.25C52.45 91.21 57.31 84.39 48.89 77.86C53.05 30.61 69.13 -3.33997 101.12 -38.03C147.49 -54.07 135.44 22.25 94.25 12.88C95.61 21.98 86.19 33.05 76.95 28C77.34 31.94 83.1 32.54 85.61 35.02C88.1 37.48 87.78 50.17 99.68 46.85C99.09 56.35 105.07 58.68 105.45 63.62C105.98 70.53 98.34 77.91 104.32 89.43C107.48 95.5 125.57 113.18 134.63 131.51C136.28 134.84 136.16 137.78 136.44 137.97C137.45 138.7 147.91 131.55 159.91 141.98C169.28 150.13 160.5 163.04 169.12 166.94L169.14 166.93Z" fill="#3E54A0"/>
<path d="M119.2 130.15C130.21 142.15 104.9 144.47 114.34 130.57C115.96 130.43 117.58 130.29 119.2 130.15Z" fill="#243C93"/>
<path d="M69.27 43.14L72.53 45.35C74.57 62.52 52.2 47.82 69.27 43.14Z" fill="#243C93"/>
<path d="M90.1 163.07C91.1867 163.81 92.2733 164.547 93.36 165.28C94.79 182.25 74.15 166.93 90.1 163.07Z" fill="#0C1611"/>
<path d="M85.01 99.82C94.92 110.26 72.11 112.47 80.65 100.48C82.1033 100.26 83.5567 100.04 85.01 99.82Z" fill="#243C93"/>
<path d="M146.32 178.74C153.13 187.93 136.21 188.39 141.96 179.4C143.413 179.18 144.867 178.96 146.32 178.74Z" fill="#0C1611"/>
<path d="M124.97 213.58L127.73 215.55C127.81 226.14 114.27 216.1 124.97 213.58Z" fill="#0A0A0A"/>
<path d="M116.2 208.68L118.7 209.9C121.84 220.79 105.74 213.56 116.2 208.68Z" fill="#0A0A0A"/>
<path d="M63.01 66.13C72.13 71.93 55.44 76.4 60.65 66.53L63.01 66.13Z" fill="#001D89"/>
<path d="M105.96 180.12L107.1 182.23C104.12 190 97.43 179.14 105.96 180.12Z" fill="#0C1611"/>
<path d="M102.31 110.12C105.73 111.02 102.44 118.34 100.45 110.76C101.07 110.547 101.69 110.333 102.31 110.12Z" fill="#2B4296"/>
<path d="M72.32 75.02C72.7 75.72 73.08 76.4234 73.46 77.13C72.6 80.43 67 76.43 72.32 75.02Z" fill="#2B4296"/>
<path d="M114.18 153.13C117.55 154.23 112.48 159.04 112.32 153.77L114.18 153.13Z" fill="#1A338F"/>
<path d="M345.1 -69.01C264.65 -33.83 196.92 66.26 173.95 148.2C172.25 154.25 170.41 160.8 169.14 166.94C160.52 163.04 169.3 150.13 159.93 141.98C147.93 131.54 137.48 138.7 136.46 137.97C136.19 137.77 136.3 134.84 134.65 131.51C125.6 113.18 107.5 95.5 104.34 89.43C98.35 77.92 106 70.54 105.47 63.62C105.09 58.69 99.12 56.35 99.7 46.85C87.8 50.17 88.13 37.48 85.63 35.02C83.11 32.54 77.36 31.94 76.97 28C86.21 33.05 95.64 21.98 94.27 12.88C135.46 22.25 147.51 -54.07 101.14 -38.03C125.35 -64.28 152.24 -82.16 186.61 -92.43C185.37 -89.28 192.52 -91.25 201.11 -87.21C206.78 -90.9 198.43 -93.67 195.06 -94.5C244.18 -106.5 303.33 -98.7 345.09 -69.01H345.1Z" fill="url(#paint0_linear_3_96)"/>
<path d="M132.73 7.15002C144.95 14.21 124.42 20.74 129.38 8.30003C130.5 7.91336 131.617 7.53002 132.73 7.15002Z" fill="#243C93"/>
<path d="M155.23 14.41C164.59 21.81 146.09 25.61 152.12 15.06C153.153 14.84 154.19 14.6234 155.23 14.41Z" fill="#221E18"/>
<path d="M97.64 38.39C105.58 43.23 93.32 50.31 93.8 40.54C95.08 39.82 96.36 39.1033 97.64 38.39Z" fill="#2B4296"/>
<path d="M130.13 74.72C136.3 77.22 129.38 83.71 127.29 77.36L130.13 74.72Z" fill="#243C93"/>
</g>
</g>
<defs>
<filter id="filter0_d_3_96" x="0" y="-149" width="484" height="484" filterUnits="userSpaceOnUse" color-interpolation-filters="sRGB">
<feFlood flood-opacity="0" result="BackgroundImageFix"/>
<feColorMatrix in="SourceAlpha" type="matrix" values="0 0 0 0 0 0 0 0 0 0 0 0 0 0 0 0 0 0 127 0" result="hardAlpha"/>
<feMorphology radius="16" operator="dilate" in="SourceAlpha" result="effect1_dropShadow_3_96"/>
<feOffset/>
<feGaussianBlur stdDeviation="13"/>
<feComposite in2="hardAlpha" operator="out"/>
<feColorMatrix type="matrix" values="0 0 0 0 1 0 0 0 0 1 0 0 0 0 1 0 0 0 0.5 0"/>
<feBlend mode="normal" in2="BackgroundImageFix" result="effect1_dropShadow_3_96"/>
<feBlend mode="normal" in="SourceGraphic" in2="effect1_dropShadow_3_96" result="shape"/>
</filter>
<filter id="filter1_d_3_96" x="32.0052" y="-117.006" width="410.998" height="417.18" filterUnits="userSpaceOnUse" color-interpolation-filters="sRGB">
<feFlood flood-opacity="0" result="BackgroundImageFix"/>
<feColorMatrix in="SourceAlpha" type="matrix" values="0 0 0 0 0 0 0 0 0 0 0 0 0 0 0 0 0 0 127 0" result="hardAlpha"/>
<feOffset/>
<feGaussianBlur stdDeviation="5"/>
<feColorMatrix type="matrix" values="0 0 0 0 1 0 0 0 0 1 0 0 0 0 1 0 0 0 0.75 0"/>
<feBlend mode="normal" in2="BackgroundImageFix" result="effect1_dropShadow_3_96"/>
<feBlend mode="normal" in="SourceGraphic" in2="effect1_dropShadow_3_96" result="shape"/>
</filter>
<linearGradient id="paint0_linear_3_96" x1="298.372" y1="-103.243" x2="105.537" y2="94.7796" gradientUnits="userSpaceOnUse">
<stop stop-color="#9BA6CE"/>
<stop offset="1" stop-color="#001D89"/>
</linearGradient>
<clipPath id="clip0_3_96">
<rect width="391.01" height="397.18" fill="white" transform="translate(42 -107)"/>
</clipPath>
</defs>
</svg>
