<svg width="204" height="204" viewBox="0 0 204 204" fill="none" xmlns="http://www.w3.org/2000/svg">
<g filter="url(#filter0_d_87_6)">
<circle cx="102" cy="102" r="60" fill="#D9D9D9"/>
</g>
<g clip-path="url(#clip0_87_6)">
<g filter="url(#filter1_d_87_6)">
<path d="M153.082 127.17C167.582 97.466 155.863 61.9271 126.906 47.7916C97.95 33.6561 62.7213 46.2767 48.2209 75.9806C33.7205 105.685 45.4395 141.223 74.3959 155.359C103.352 169.494 138.581 156.874 153.082 127.17Z" fill="#F2FBFD"/>
<path d="M93.933 151.191C89.859 153.45 84.258 149.991 85.359 145.89C86.682 140.967 93.954 140.994 96.195 145.227C97.443 147.582 96.081 150 93.933 151.194V151.191Z" fill="#7584BB"/>
<path d="M143.457 138.534C141.537 140.814 139.245 142.902 137.013 144.876C139.725 141.543 134.859 143.322 134.379 143.22C132.738 142.869 132.747 141.798 132.189 141.036C131.457 140.031 130.2 137.193 128.001 140.85C125.931 138.909 127.311 138.519 124.677 137.367C124.272 137.19 122.916 136.047 122.436 137.574C125.142 138.438 121.527 139.869 120.75 137.028C122.085 133.11 125.259 135.786 125.559 135.75C125.904 135.705 127.137 132.294 129.507 134.142C130.164 134.655 130.266 135.456 130.341 135.48C131.094 135.723 134.277 128.13 143.454 138.534H143.457Z" fill="#B7BFDB"/>
<path d="M132.192 141.033C131.439 145.17 127.227 143.313 128.004 140.847C130.203 137.187 131.46 140.028 132.192 141.033Z" fill="#8895C4"/>
<path d="M124.68 137.364C127.311 138.516 125.934 138.906 128.004 140.847C127.227 143.31 131.439 145.167 132.192 141.033C132.75 141.798 132.741 142.869 134.382 143.217C134.859 143.319 139.725 141.54 137.016 144.873C131.445 149.799 126.972 152.508 120.066 155.202C119.367 153.672 117.834 154.341 117.663 154.215C117.276 153.927 118.623 151.68 115.416 149.862C118.923 147.849 121.482 144.624 121.419 140.421C114.591 145.791 111.189 141.291 107.187 145.566C103.557 142.335 103.653 145.779 102.318 148.491C102.255 148.62 101.163 149.73 100.986 150.075C100.791 150.456 100.671 155.457 95.541 155.322C95.373 153.357 93.843 153.159 93.933 151.188C96.081 149.997 97.44 147.579 96.195 145.221C93.954 140.988 86.682 140.964 85.359 145.884C83.847 146.658 83.607 144.954 81.84 145.281C80.931 145.449 81.402 146.514 80.568 145.218C80.432 145.306 80.296 145.395 80.16 145.485C80.109 147.945 79.554 145.068 79.053 143.178C78.6 137.055 78.903 130.185 80.145 124.176C80.526 122.337 81.078 120.369 81.588 118.554C86.157 120.456 86.649 118.851 89.067 118.671C96.012 118.146 96.015 123.195 96.366 123.537C96.804 123.966 100.011 123.258 100.176 123.351C100.629 123.6 100.809 129.156 107.265 129.789C109.368 129.996 113.757 127.452 114.321 132.861C121.26 131.82 118.638 137.742 120.585 139.083C122.178 140.178 125.427 139.491 124.68 137.361V137.364Z" fill="#B7BFDB"/>
<path d="M87.009 130.881C91.842 132.756 88.674 139.434 84.534 137.859C79.749 136.041 82.752 129.228 87.009 130.881Z" fill="#7584BB"/>
<path d="M102.951 132.525C106.803 133.632 104.781 139.479 101.361 138.447C97.149 137.175 99.843 131.634 102.951 132.525Z" fill="#7C8ABF"/>
<path d="M128.592 147.834C128.906 148.142 129.22 148.451 129.534 148.761C128.388 152.874 124.047 148.557 128.592 147.834Z" fill="#919CC9"/>
<path d="M109.443 131.043L110.271 131.634C110.523 135.525 105.783 132.114 109.443 131.043Z" fill="#A2ACD1"/>
<path d="M98.799 128.451C99.087 128.685 99.376 128.919 99.666 129.153C98.763 131.151 96.291 128.715 98.799 128.451Z" fill="#DADEED"/>
<path d="M120.063 155.205C112.677 158.085 104.877 159.555 96.924 159.162C96.003 158.88 94.272 158.625 93.411 159.12C91.974 158.364 90.039 158.556 88.392 158.157C86.064 157.596 83.706 156.969 81.42 156.243C81.144 154.521 80.547 152.868 80.175 151.17C79.56 148.359 79.263 146.043 79.053 143.181C79.554 145.071 80.109 147.948 80.16 145.488C80.296 145.4 80.432 145.311 80.568 145.221C81.399 146.517 80.931 145.452 81.84 145.284C83.61 144.957 83.847 146.661 85.359 145.887C84.258 149.988 89.859 153.45 93.933 151.188C93.843 153.159 95.373 153.357 95.541 155.322C100.671 155.457 100.791 150.456 100.986 150.075C101.163 149.73 102.252 148.623 102.318 148.491C103.653 145.779 103.56 142.335 107.187 145.566C111.189 141.291 114.591 145.791 121.419 140.421C121.479 144.624 118.923 147.849 115.416 149.862C118.623 151.68 117.276 153.927 117.663 154.215C117.834 154.341 119.364 153.672 120.066 155.202L120.063 155.205Z" fill="#A2ACD1"/>
<path d="M110.634 146.508L111.462 147.099C111.576 151.11 106.872 147.246 110.634 146.508Z" fill="#7584BB"/>
<path d="M108.234 153.336C110.805 156.237 104.736 156.312 107.376 153.381C107.662 153.365 107.948 153.35 108.234 153.336Z" fill="#7584BB"/>
<path d="M143.457 138.534C134.28 128.13 131.097 135.723 130.344 135.48C130.269 135.456 130.164 134.655 129.51 134.142C127.14 132.294 125.907 135.705 125.562 135.75C125.259 135.789 122.085 133.11 120.753 137.028C121.53 139.869 125.145 138.435 122.439 137.574C122.919 136.047 124.275 137.19 124.68 137.367C125.427 139.497 122.178 140.184 120.585 139.089C118.638 137.748 121.26 131.826 114.321 132.867C113.754 127.455 109.365 129.999 107.265 129.795C100.809 129.162 100.629 123.606 100.176 123.357C100.008 123.264 96.801 123.972 96.366 123.543C96.015 123.201 96.012 118.155 89.067 118.677C86.652 118.86 86.157 120.462 81.588 118.56C88.479 93.981 108.798 63.951 132.933 53.397C140.4 58.707 147.879 68.67 151.626 77.034C160.674 97.227 157.794 121.518 143.463 138.534H143.457Z" fill="#DADEED"/>
<path d="M141.645 97.092C145.932 98.889 143.751 105.342 139.842 104.211C134.445 102.651 137.124 95.196 141.645 97.092Z" fill="#B2BAD9"/>
<path d="M128.097 64.248C132.393 65.616 127.917 72.087 125.145 68.388C123.636 66.372 126.186 63.639 128.097 64.248Z" fill="#B2BAD9"/>
<path d="M143.121 71.58C146.538 72.429 144.459 76.95 142.041 76.077C139.242 75.066 140.79 71.001 143.121 71.58Z" fill="#B2BAD9"/>
<path d="M126.093 81.312C126.564 81.498 125.355 84.252 129.45 84.534C126.828 89.127 121.383 83.454 126.093 81.312Z" fill="#B7BFDB"/>
<path d="M148.098 115.497C151.08 116.367 149.571 119.649 147.909 119.313C145.572 118.839 145.59 115.647 148.098 115.497Z" fill="#B2BAD9"/>
<path d="M135.405 117.114C135.757 117.41 136.109 117.706 136.461 118.002C136.554 123.771 129.681 117.858 135.405 117.114Z" fill="#B2BAD9"/>
<path d="M131.895 125.445C135.198 128.541 128.253 129.798 130.365 125.721C130.875 125.629 131.385 125.537 131.895 125.445Z" fill="#DADEED"/>
<path d="M114.564 119.406L115.617 119.919C116.634 124.215 110.223 120.837 114.564 119.406Z" fill="#DADEED"/>
<path d="M129.594 80.2319C133.152 82.4279 126.657 84.3839 128.661 80.4269C128.971 80.3609 129.282 80.2959 129.594 80.2319Z" fill="#B2BAD9"/>
<path d="M117.171 79.005L117.771 79.299C118.485 82.932 113.988 79.878 117.171 79.005Z" fill="#DADEED"/>
<path d="M118.965 86.7629C121.251 89.1179 116.283 89.4929 118.032 86.9579C118.342 86.8919 118.653 86.8269 118.965 86.7629Z" fill="#ECEEF6"/>
<path d="M128.052 122.268C129.954 123.705 126.939 125.208 126.9 122.913C127.284 122.697 127.668 122.482 128.052 122.268Z" fill="#98A2CC"/>
<path d="M120.885 76.353L121.635 76.719C122.148 79.62 118.416 77.763 120.885 76.353Z" fill="#DADEED"/>
<path d="M148.581 87.4559C148.344 88.7729 148.599 90.2819 149.739 91.1819C149.94 92.0489 146.427 89.7809 148.581 87.4559Z" fill="#98A2CC"/>
<path d="M90.489 111.558C92.892 113.001 88.632 114.501 89.931 111.75L90.489 111.558Z" fill="#DADEED"/>
<path d="M151.482 93.708L151.932 93.927C152.412 96.078 149.379 94.593 151.482 93.708Z" fill="#8895C4"/>
<path d="M150.516 110.166C151.89 110.805 150.609 112.119 149.886 110.883C150.096 110.645 150.306 110.406 150.516 110.166Z" fill="#7584BB"/>
<path d="M125.7 118.701C126.963 118.938 125.643 120.816 125.067 119.043L125.7 118.701Z" fill="#ECEEF6"/>
<path d="M147.582 84.549L147.849 84.957C147.204 85.227 146.868 84.711 147.582 84.549Z" fill="#DADEED"/>
<path d="M80.175 151.17C80.547 152.868 81.141 154.521 81.42 156.243C72.762 153.492 65.286 149.211 59.157 142.398C56.799 139.776 53.025 134.079 51.273 130.92C45.528 120.579 43.038 109.233 44.076 97.458C46.602 99.417 45.141 101.463 45.156 104.775C45.192 113.631 47.187 111.249 48.033 112.41C48.111 112.515 47.664 113.814 48.057 115.026C48.348 115.923 50.226 117.849 50.217 118.035C50.202 118.317 48.885 119.835 50.904 123.3C52.53 126.096 54.534 126.414 54.675 126.63C54.852 126.903 53.772 127.632 53.76 128.694C53.748 129.741 55.695 131.103 55.767 131.253C56.202 132.201 54.285 133.518 59.268 137.799C66.147 143.709 75.948 143.445 73.161 148.023C71.1 148.65 71.154 148.851 74.862 150.063C76.461 150.585 78.558 150.672 80.181 151.17H80.175Z" fill="#0A0A0A"/>
<path d="M80.142 124.179C78.9 130.188 78.6 137.058 79.05 143.181C79.263 146.043 79.557 148.359 80.172 151.17C78.549 150.669 76.452 150.585 74.853 150.063C71.145 148.851 71.091 148.65 73.152 148.023C75.939 143.445 66.138 143.709 59.259 137.799C54.276 133.518 56.193 132.201 55.758 131.253C55.689 131.103 53.739 129.741 53.751 128.694C53.763 127.629 54.843 126.9 54.666 126.63C54.528 126.414 52.524 126.096 50.895 123.3C48.879 119.835 50.196 118.317 50.208 118.035C50.217 117.849 48.339 115.923 48.048 115.026C47.655 113.811 48.099 112.515 48.024 112.41C47.181 111.246 45.183 113.631 45.147 104.775C45.135 101.463 46.593 99.417 44.067 97.458C45.315 83.283 50.139 73.098 59.736 62.691C73.647 57.879 70.032 80.775 57.675 77.964C58.083 80.694 55.257 84.015 52.485 82.5C52.602 83.682 54.33 83.862 55.083 84.606C55.83 85.344 55.734 89.151 59.304 88.155C59.127 91.005 60.921 91.704 61.035 93.186C61.194 95.259 58.902 97.473 60.696 100.929C61.644 102.75 67.071 108.054 69.789 113.553C70.284 114.552 70.248 115.434 70.332 115.491C70.635 115.71 73.773 113.565 77.373 116.694C80.184 119.139 77.55 123.012 80.136 124.182L80.142 124.179Z" fill="#3E54A0"/>
<path d="M65.16 113.145C68.463 116.745 60.87 117.441 63.702 113.271C64.188 113.229 64.674 113.187 65.16 113.145Z" fill="#243C93"/>
<path d="M50.181 87.042L51.159 87.705C51.771 92.856 45.06 88.446 50.181 87.042Z" fill="#243C93"/>
<path d="M56.43 123.021C56.756 123.243 57.082 123.464 57.408 123.684C57.837 128.775 51.645 124.179 56.43 123.021Z" fill="#0C1611"/>
<path d="M54.903 104.046C57.876 107.178 51.033 107.841 53.595 104.244C54.031 104.178 54.467 104.112 54.903 104.046Z" fill="#243C93"/>
<path d="M73.296 127.722C75.339 130.479 70.263 130.617 71.988 127.92C72.424 127.854 72.86 127.788 73.296 127.722Z" fill="#0C1611"/>
<path d="M66.891 138.174L67.719 138.765C67.743 141.942 63.681 138.93 66.891 138.174Z" fill="#0A0A0A"/>
<path d="M64.26 136.704L65.01 137.07C65.952 140.337 61.122 138.168 64.26 136.704Z" fill="#0A0A0A"/>
<path d="M48.303 93.939C51.039 95.679 46.032 97.02 47.595 94.059L48.303 93.939Z" fill="#001D89"/>
<path d="M61.188 128.136L61.53 128.769C60.636 131.1 58.629 127.842 61.188 128.136Z" fill="#0C1611"/>
<path d="M60.093 107.136C61.119 107.406 60.132 109.602 59.535 107.328C59.721 107.264 59.907 107.2 60.093 107.136Z" fill="#2B4296"/>
<path d="M51.096 96.606C51.21 96.816 51.324 97.027 51.438 97.239C51.18 98.229 49.5 97.029 51.096 96.606Z" fill="#2B4296"/>
<path d="M63.654 120.039C64.665 120.369 63.144 121.812 63.096 120.231L63.654 120.039Z" fill="#1A338F"/>
<path d="M85.386 46.371C86.232 46.119 87.069 45.957 87.921 45.75C88.932 46.002 91.437 46.83 89.736 47.937C87.159 46.725 85.011 47.316 85.386 46.371Z" fill="#7C8ABF"/>
<path d="M132.93 53.3969C108.795 63.9509 88.476 93.9779 81.585 118.56C81.075 120.375 80.523 122.34 80.142 124.182C77.556 123.012 80.19 119.139 77.379 116.694C73.779 113.562 70.644 115.71 70.338 115.491C70.257 115.431 70.29 114.552 69.795 113.553C67.08 108.054 61.65 102.75 60.702 100.929C58.905 97.4759 61.2 95.2619 61.041 93.1859C60.927 91.7069 59.136 91.0049 59.31 88.1549C55.74 89.1509 55.839 85.3439 55.089 84.6059C54.333 83.8619 52.608 83.6819 52.491 82.4999C55.263 84.0149 58.092 80.6939 57.681 77.9639C70.038 80.7749 73.653 57.8789 59.742 62.6909C67.005 54.8159 75.072 49.4519 85.383 46.3709C85.011 47.3159 87.156 46.7249 89.733 47.9369C91.434 46.8299 88.929 45.9989 87.918 45.7499C102.654 42.1499 120.399 44.4899 132.927 53.3969H132.93Z" fill="url(#paint0_linear_87_6)"/>
<path d="M80.805 52.134C92.232 55.944 81.804 70.971 72.63 65.073C65.199 60.297 72.834 49.476 80.805 52.134Z" fill="#3E54A0"/>
<path d="M94.86 59.928C103.833 62.967 98.475 74.016 90.939 72.153C81.336 69.78 86.694 57.162 94.86 59.928Z" fill="#3E54A0"/>
<path d="M112.719 58.785C115.299 59.592 113.712 62.973 111.63 62.16C109.41 61.296 110.715 58.158 112.719 58.785Z" fill="#3E54A0"/>
<path d="M102.033 51.708C104.538 52.68 102.354 56.313 100.116 54.492C98.805 53.427 100.308 51.036 102.033 51.708Z" fill="#3E54A0"/>
<path d="M69.219 76.245C72.885 78.363 66.726 80.322 68.214 76.59C68.55 76.474 68.885 76.359 69.219 76.245Z" fill="#243C93"/>
<path d="M75.969 78.423C78.777 80.643 73.227 81.783 75.036 78.618C75.346 78.552 75.657 78.487 75.969 78.423Z" fill="#221E18"/>
<path d="M102.201 45.651C105.324 47.502 99.828 49.467 101.418 45.921C101.678 45.831 101.939 45.741 102.201 45.651Z" fill="#2B4296"/>
<path d="M58.692 85.6169C61.074 87.0689 57.396 89.1929 57.54 86.2619C57.924 86.0459 58.308 85.8309 58.692 85.6169Z" fill="#2B4296"/>
<path d="M111.021 45.4919C113.904 46.6859 109.887 48.8789 110.388 45.8339L111.021 45.4919Z" fill="#4C60A6"/>
<path d="M118.437 54.693C120.777 56.121 116.595 57.792 117.654 54.963C117.914 54.873 118.175 54.783 118.437 54.693Z" fill="#2B4296"/>
<path d="M90.726 49.7219C93.189 51.2609 88.722 52.6109 90.018 49.8419C90.254 49.8019 90.49 49.7619 90.726 49.7219Z" fill="#8F9BC8"/>
<path d="M123.351 52.629L124.101 52.995C124.518 55.806 120.849 53.835 123.351 52.629Z" fill="#2B4296"/>
<path d="M103.131 72.708C103.395 72.992 103.659 73.276 103.923 73.56C103.161 75.747 100.809 73.32 103.131 72.708Z" fill="#2B4296"/>
<path d="M84.189 69.9719C86.106 71.1869 83.304 72.8099 83.259 70.5419L84.189 69.9719Z" fill="#2B4296"/>
<path d="M68.439 96.516C70.29 97.266 68.214 99.213 67.587 97.308L68.439 96.516Z" fill="#243C93"/>
<path d="M105.789 61.1699C107.325 62.5949 104.442 63.7679 104.784 61.5149L105.789 61.1699Z" fill="#2B4296"/>
<path d="M86.313 49.614C88.323 51.096 84.525 52.032 85.605 49.734C85.841 49.694 86.077 49.654 86.313 49.614Z" fill="#6172B1"/>
<path d="M79.71 70.7639C81.681 71.5679 79.146 73.3589 78.93 71.4059C79.19 71.1919 79.45 70.9779 79.71 70.7639Z" fill="#2B4296"/>
<path d="M95.742 50.499C97.287 51.276 95.442 52.569 95.037 50.991C95.273 50.827 95.508 50.663 95.742 50.499Z" fill="#6172B1"/>
<path d="M109.626 47.973L110.265 48.378C110.019 49.767 108.399 48.531 109.626 47.973Z" fill="#6172B1"/>
<path d="M105.672 56.835C106.59 57.216 105.621 58.263 105.339 57.324L105.672 56.835Z" fill="#6172B1"/>
<path d="M93.318 47.0819C93.573 47.6309 93.201 48.0149 92.835 47.4989L93.318 47.0819Z" fill="#7C8ABF"/>
</g>
</g>
<defs>
<filter id="filter0_d_87_6" x="0" y="0" width="204" height="204" filterUnits="userSpaceOnUse" color-interpolation-filters="sRGB">
<feFlood flood-opacity="0" result="BackgroundImageFix"/>
<feColorMatrix in="SourceAlpha" type="matrix" values="0 0 0 0 0 0 0 0 0 0 0 0 0 0 0 0 0 0 127 0" result="hardAlpha"/>
<feMorphology radius="16" operator="dilate" in="SourceAlpha" result="effect1_dropShadow_87_6"/>
<feOffset/>
<feGaussianBlur stdDeviation="13"/>
<feComposite in2="hardAlpha" operator="out"/>
<feColorMatrix type="matrix" values="0 0 0 0 1 0 0 0 0 1 0 0 0 0 1 0 0 0 0.5 0"/>
<feBlend mode="normal" in2="BackgroundImageFix" result="effect1_dropShadow_87_6"/>
<feBlend mode="normal" in="SourceGraphic" in2="effect1_dropShadow_87_6" result="shape"/>
</filter>
<filter id="filter1_d_87_6" x="32.0016" y="31.9982" width="137.299" height="139.154" filterUnits="userSpaceOnUse" color-interpolation-filters="sRGB">
<feFlood flood-opacity="0" result="BackgroundImageFix"/>
<feColorMatrix in="SourceAlpha" type="matrix" values="0 0 0 0 0 0 0 0 0 0 0 0 0 0 0 0 0 0 127 0" result="hardAlpha"/>
<feOffset/>
<feGaussianBlur stdDeviation="5"/>
<feColorMatrix type="matrix" values="0 0 0 0 1 0 0 0 0 1 0 0 0 0 1 0 0 0 0.75 0"/>
<feBlend mode="normal" in2="BackgroundImageFix" result="effect1_dropShadow_87_6"/>
<feBlend mode="normal" in="SourceGraphic" in2="effect1_dropShadow_87_6" result="shape"/>
</filter>
<linearGradient id="paint0_linear_87_6" x1="118.912" y1="43.127" x2="61.061" y2="102.534" gradientUnits="userSpaceOnUse">
<stop stop-color="#9BA6CE"/>
<stop offset="1" stop-color="#001D89"/>
</linearGradient>
<clipPath id="clip0_87_6">
<rect width="117.303" height="119.154" fill="white" transform="translate(42 42)"/>
</clipPath>
</defs>
</svg>
