<svg width="150" height="150" viewBox="0 0 150 150" fill="none" xmlns="http://www.w3.org/2000/svg">
<path d="M75 150C116.421 150 150 116.421 150 75C150 33.5786 116.421 0 75 0C33.5786 0 0 33.5786 0 75C0 116.421 33.5786 150 75 150Z" fill="#627EEA"/>
<path d="M77.3344 18.75V60.3281L112.477 76.0313L77.3344 18.75Z" fill="white" fill-opacity="0.602"/>
<path d="M77.3344 18.75L42.1875 76.0313L77.3344 60.3281V18.75Z" fill="white"/>
<path d="M77.3344 102.975V131.227L112.5 82.5751L77.3344 102.975Z" fill="white" fill-opacity="0.602"/>
<path d="M77.3344 131.227V102.97L42.1875 82.5751L77.3344 131.227Z" fill="white"/>
<path d="M77.3344 96.4361L112.477 76.0314L77.3344 60.3376V96.4361Z" fill="white" fill-opacity="0.2"/>
<path d="M42.1875 76.0314L77.3344 96.4361V60.3376L42.1875 76.0314Z" fill="white" fill-opacity="0.602"/>
</svg>
