<?xml version="1.0" encoding="UTF-8" standalone="no" ?>
<!DOCTYPE svg PUBLIC "-//W3C//DTD SVG 1.1//EN" "http://www.w3.org/Graphics/SVG/1.1/DTD/svg11.dtd">
<svg xmlns="http://www.w3.org/2000/svg" xmlns:xlink="http://www.w3.org/1999/xlink" version="1.1" width="500" height="410" viewBox="0 0 500 410" xml:space="preserve">
<desc>Created with Fabric.js 3.6.3</desc>
<defs>
</defs>
<g transform="matrix(0.42326732673267325 0 0 0.4232673267326733 250 175.85)"  >
<linearGradient id="SVGID_39775" gradientUnits="userSpaceOnUse" gradientTransform="matrix(1 0 0 1 -202 -192)"  x1="0" y1="0" x2="960.0000000000001" y2="286.7358746037277">
<stop offset="0%" style="stop-color:#8f5e25;"/>
<stop offset="50%" style="stop-color:#fbf4a1;"/>
<stop offset="100%" style="stop-color:#8f5e25;"/>
</linearGradient>
<polygon style="stroke: none; stroke-width: 0; stroke-dasharray: none; stroke-linecap: butt; stroke-dashoffset: 0; stroke-linejoin: miter; stroke-miterlimit: 4; fill: url(#SVGID_39775); fill-rule: nonzero; opacity: 1;"  points="0,116.68599999999998 124.82999999999998,192 91.80900000000003,49.934000000000026 202,-45.59100000000001 56.733000000000004,-58.066 0,-192 -56.742999999999995,-58.066 -202,-45.59100000000001 -91.80799999999999,49.934000000000026 -124.839,192 " />
</g>
<g transform="matrix(1 0 0 1 250.49 299.40766725078333)" style=""  ><path fill="url(#CUSTOM_SVGID_undefined)" opacity="1" d="M-176.01-12.17C-176.01-14.18-173.99-16.20-167.94-16.20C-162.89-16.20-160.81-14.18-160.20-13.18C-159.26-11.49-158.19-10.48-156.17-10.48L-147.76-10.48C-146.08-10.48-145.07-11.49-145.07-13.18C-145.07-19.90-152.47-27.30-167.94-27.30C-184.42-27.30-191.48-20.24-191.48-12.17C-191.48 6.67-158.86 0.28-158.86 7.01C-158.86 9.02-161.21 11.38-167.94 11.38C-174.67 11.38-176.69 9.36-177.69 7.68C-178.64 6.06-179.71 4.99-181.73 4.99L-190.14 4.99C-191.82 4.99-192.83 6.00-192.83 7.68C-192.83 15.08-185.43 22.48-167.94 22.48C-150.79 22.48-143.39 15.08-143.39 7.01C-143.39-11.83-176.01-5.44-176.01-12.17Z"/>
    <linearGradient id="CUSTOM_SVGID_undefined" gradientUnits="userSpaceOnUse" gradientTransform="matrix(1 0 0 1 -194.995 -38.00766725078334)"  x1="0" y1="0" x2="389.99" y2="76.01533450156668">
      <stop  offset="0" style="stop-color:#8f5e25;stop-opacity:undefined"/><stop  offset="0.5" style="stop-color:#fbf4a1;stop-opacity:undefined"/><stop  offset="1" style="stop-color:#8f5e25;stop-opacity:undefined"/>
    </linearGradient>
  <path fill="url(#CUSTOM_SVGID_undefined)" opacity="1" d="M-93.94-23.60C-93.94-24.95-94.95-25.96-96.30-25.96L-139.35-25.96C-140.70-25.96-141.70-24.95-141.70-23.60L-141.70-16.88C-141.70-15.53-140.70-14.52-139.35-14.52L-125.22-14.52L-125.22 18.78C-125.22 20.12-124.21 21.13-122.87 21.13L-112.78 21.13C-111.43 21.13-110.42 20.12-110.42 18.78L-110.42-14.52L-96.30-14.52C-94.95-14.52-93.94-15.53-93.94-16.88Z"/>
    <linearGradient id="CUSTOM_SVGID_undefined" gradientUnits="userSpaceOnUse" gradientTransform="matrix(1 0 0 1 -194.995 -38.00766725078334)"  x1="0" y1="0" x2="389.99" y2="76.01533450156668">
      <stop  offset="0" style="stop-color:#8f5e25;stop-opacity:undefined"/><stop  offset="0.5" style="stop-color:#fbf4a1;stop-opacity:undefined"/><stop  offset="1" style="stop-color:#8f5e25;stop-opacity:undefined"/>
    </linearGradient>
  <path fill="url(#CUSTOM_SVGID_undefined)" opacity="1" d="M-55.40 18.78C-54.86 20.12-53.72 21.13-52.37 21.13L-40.93 21.13C-39.59 21.13-38.65 20.12-39.25 18.78L-58.09-23.67C-58.69-25.02-59.77-25.96-61.11-25.96L-74.91-25.96C-76.25-25.96-77.33-24.95-77.93-23.60L-96.77 18.78C-97.37 20.12-96.43 21.13-95.09 21.13L-84.32 21.13C-82.98 21.13-81.83 20.12-81.30 18.78L-78.94 12.72L-57.75 12.72ZM-68.51-11.83L-67.84-11.83L-62.46 1.62L-74.23 1.62Z"/>
    <linearGradient id="CUSTOM_SVGID_undefined" gradientUnits="userSpaceOnUse" gradientTransform="matrix(1 0 0 1 -194.995 -38.00766725078334)"  x1="0" y1="0" x2="389.99" y2="76.01533450156668">
      <stop  offset="0" style="stop-color:#8f5e25;stop-opacity:undefined"/><stop  offset="0.5" style="stop-color:#fbf4a1;stop-opacity:undefined"/><stop  offset="1" style="stop-color:#8f5e25;stop-opacity:undefined"/>
    </linearGradient>
  <path fill="url(#CUSTOM_SVGID_undefined)" opacity="1" d="M5.68 0.28C5.68 0.28 14.77-1.74 14.77-10.48C14.77-18.89 7.70-25.96-7.10-25.96L-31.65-25.96C-33.00-25.96-34.01-24.95-34.01-23.60L-34.01 18.78C-34.01 20.12-33.00 21.13-31.65 21.13L-21.56 21.13C-20.21 21.13-19.21 20.12-19.21 18.78L-19.21 4.99L-10.46 4.99C-6.76 4.99-5.48 6.33-4.41 8.35L1.31 18.78C2.05 20.12 2.99 21.13 5.68 21.13L16.11 21.13C17.79 21.13 18.33 19.79 17.79 18.78L12.08 8.35C8.71 2.30 5.68 0.95 5.68 0.95ZM-19.21-5.78L-19.21-15.19L-7.10-15.19C-2.72-15.19-0.71-13.18-0.71-10.48C-0.71-7.79-2.72-5.78-7.10-5.78Z"/>
    <linearGradient id="CUSTOM_SVGID_undefined" gradientUnits="userSpaceOnUse" gradientTransform="matrix(1 0 0 1 -194.995 -38.00766725078334)"  x1="0" y1="0" x2="389.99" y2="76.01533450156668">
      <stop  offset="0" style="stop-color:#8f5e25;stop-opacity:undefined"/><stop  offset="0.5" style="stop-color:#fbf4a1;stop-opacity:undefined"/><stop  offset="1" style="stop-color:#8f5e25;stop-opacity:undefined"/>
    </linearGradient>
  <path fill="url(#CUSTOM_SVGID_undefined)" opacity="1" d="M52.44-25.96C50.76-25.96 49.75-24.95 49.41-23.60L43.02 2.97L42.35 2.97L35.28-23.60C34.95-24.95 33.94-25.96 32.26-25.96L21.49-25.96C20.48-25.96 19.41-24.95 19.81-23.60L31.58 18.78C31.99 20.12 32.93 21.13 34.61 21.13L48.06 21.13C49.75 21.13 50.76 20.12 51.09 18.78L58.16-7.12L58.83-7.12L65.89 18.78C66.23 20.12 67.24 21.13 68.92 21.13L82.37 21.13C84.05 21.13 85.00 20.12 85.40 18.78L97.17-23.60C97.58-24.95 96.50-25.96 95.49-25.96L84.73-25.96C83.05-25.96 82.04-24.95 81.70-23.60L74.64 2.97L73.96 2.97L67.57-23.60C67.24-24.95 66.23-25.96 64.55-25.96Z"/>
    <linearGradient id="CUSTOM_SVGID_undefined" gradientUnits="userSpaceOnUse" gradientTransform="matrix(1 0 0 1 -194.995 -38.00766725078334)"  x1="0" y1="0" x2="389.99" y2="76.01533450156668">
      <stop  offset="0" style="stop-color:#8f5e25;stop-opacity:undefined"/><stop  offset="0.5" style="stop-color:#fbf4a1;stop-opacity:undefined"/><stop  offset="1" style="stop-color:#8f5e25;stop-opacity:undefined"/>
    </linearGradient>
  <path fill="url(#CUSTOM_SVGID_undefined)" opacity="1" d="M132.62-23.60C132.62-24.95 131.61-25.96 130.27-25.96L102.69-25.96C101.34-25.96 100.33-24.95 100.33-23.60L100.33-16.88C100.33-15.53 101.34-14.52 102.69-14.52L109.08-14.52L109.08 9.70L102.69 9.70C101.34 9.70 100.33 10.71 100.33 12.05L100.33 18.78C100.33 20.12 101.34 21.13 102.69 21.13L130.27 21.13C131.61 21.13 132.62 20.12 132.62 18.78L132.62 12.05C132.62 10.71 131.61 9.70 130.27 9.70L123.88 9.70L123.88-14.52L130.27-14.52C131.61-14.52 132.62-15.53 132.62-16.88Z"/>
    <linearGradient id="CUSTOM_SVGID_undefined" gradientUnits="userSpaceOnUse" gradientTransform="matrix(1 0 0 1 -194.995 -38.00766725078334)"  x1="0" y1="0" x2="389.99" y2="76.01533450156668">
      <stop  offset="0" style="stop-color:#8f5e25;stop-opacity:undefined"/><stop  offset="0.5" style="stop-color:#fbf4a1;stop-opacity:undefined"/><stop  offset="1" style="stop-color:#8f5e25;stop-opacity:undefined"/>
    </linearGradient>
  <path fill="url(#CUSTOM_SVGID_undefined)" opacity="1" d="M174.33 0.95L157.51-23.60C156.84-24.61 155.50-25.96 153.81-25.96L142.38-25.96C141.03-25.96 140.02-24.95 140.02-23.60L140.02 18.78C140.02 20.12 141.03 21.13 142.38 21.13L152.47 21.13C153.81 21.13 154.82 20.12 154.82 18.78L154.82-5.78L155.50-5.78L172.31 18.78C172.99 19.79 174.33 21.13 176.01 21.13L187.45 21.13C188.79 21.13 189.80 20.12 189.80 18.78L189.80-23.60C189.80-24.95 188.79-25.96 187.45-25.96L177.36-25.96C176.01-25.96 175.00-24.95 175.00-23.60L175.00 0.95Z"/>
    <linearGradient id="CUSTOM_SVGID_undefined" gradientUnits="userSpaceOnUse" gradientTransform="matrix(1 0 0 1 -194.995 -38.00766725078334)"  x1="0" y1="0" x2="389.99" y2="76.01533450156668">
      <stop  offset="0" style="stop-color:#8f5e25;stop-opacity:undefined"/><stop  offset="0.5" style="stop-color:#fbf4a1;stop-opacity:undefined"/><stop  offset="1" style="stop-color:#8f5e25;stop-opacity:undefined"/>
    </linearGradient>
  </g><g transform="matrix(1 0 0 1 250.5 392.7303499587691)" style=""  ><path fill="url(#CUSTOM_SVGID_undefined)" opacity="1" d="M-165.98 8.31L-165.98 1.06L-158.97-8.67L-161.06-8.67C-162.22-7.01-163.44-5.31-164.58-3.62C-165.37-2.48-166.24-1.05-166.77-0.16C-167.38-1.13-168.20-2.51-168.89-3.52C-170.05-5.21-171.22-7.01-172.38-8.67L-174.66-8.67C-172.41-5.47-170.11-2.11-167.88 1.06L-167.88 8.31Z"/>
    <linearGradient id="CUSTOM_SVGID_undefined" gradientUnits="userSpaceOnUse" gradientTransform="matrix(1 0 0 1 -195 -14.949349958769155)"  x1="0" y1="0" x2="390" y2="29.89869991753831">
      <stop  offset="0" style="stop-color:#8f5e25;stop-opacity:undefined"/><stop  offset="0.5" style="stop-color:#fbf4a1;stop-opacity:undefined"/><stop  offset="1" style="stop-color:#8f5e25;stop-opacity:undefined"/>
    </linearGradient>
  <path fill="url(#CUSTOM_SVGID_undefined)" opacity="1" d="M-147.54-7.54C-144.18-7.54-140.97-7.51-140.97-0.21C-140.97 7.09-144.12 7.12-147.54 7.12C-151.00 7.12-154.10 7.09-154.10-0.21C-154.10-7.51-151.00-7.54-147.54-7.54ZM-156.06-0.21C-156.06 7.41-152.25 8.60-147.54 8.60C-142.83 8.60-139.02 7.41-139.02-0.21C-139.02-7.83-142.83-9.02-147.54-9.02C-152.25-9.02-156.06-7.83-156.06-0.21Z"/>
    <linearGradient id="CUSTOM_SVGID_undefined" gradientUnits="userSpaceOnUse" gradientTransform="matrix(1 0 0 1 -195 -14.949349958769155)"  x1="0" y1="0" x2="390" y2="29.89869991753831">
      <stop  offset="0" style="stop-color:#8f5e25;stop-opacity:undefined"/><stop  offset="0.5" style="stop-color:#fbf4a1;stop-opacity:undefined"/><stop  offset="1" style="stop-color:#8f5e25;stop-opacity:undefined"/>
    </linearGradient>
  <path fill="url(#CUSTOM_SVGID_undefined)" opacity="1" d="M-121.02 1.14C-121.02 5.40-121.58 7.07-126.29 7.07C-131.00 7.07-131.63 5.40-131.63 1.14L-131.63-8.67L-133.51-8.67L-133.51 1.17C-133.51 6.46-132.37 8.60-126.29 8.60C-120.20 8.60-119.14 6.46-119.14 1.17L-119.14-8.67L-121.02-8.67Z"/>
    <linearGradient id="CUSTOM_SVGID_undefined" gradientUnits="userSpaceOnUse" gradientTransform="matrix(1 0 0 1 -195 -14.949349958769155)"  x1="0" y1="0" x2="390" y2="29.89869991753831">
      <stop  offset="0" style="stop-color:#8f5e25;stop-opacity:undefined"/><stop  offset="0.5" style="stop-color:#fbf4a1;stop-opacity:undefined"/><stop  offset="1" style="stop-color:#8f5e25;stop-opacity:undefined"/>
    </linearGradient>
  <path fill="url(#CUSTOM_SVGID_undefined)" opacity="1" d="M-98.51 6.91C-99.57 7.04-100.28 6.83-101.89 4.74L-103.93 2.09C-100.99 1.72-99.99 0.48-99.99-3.22C-99.99-7.88-101.58-8.67-106.60-8.67L-113.46-8.67L-113.46 8.31L-111.55 8.31L-111.55 2.20L-106.60 2.20L-106.13 2.20L-103.64 5.59C-101.66 8.26-100.57 8.58-98.80 8.31ZM-111.55 0.69L-111.55-7.17L-106.55-7.17C-103.22-7.17-101.97-7.09-101.97-3.22C-101.97 0.48-103.22 0.69-106.55 0.69Z"/>
    <linearGradient id="CUSTOM_SVGID_undefined" gradientUnits="userSpaceOnUse" gradientTransform="matrix(1 0 0 1 -195 -14.949349958769155)"  x1="0" y1="0" x2="390" y2="29.89869991753831">
      <stop  offset="0" style="stop-color:#8f5e25;stop-opacity:undefined"/><stop  offset="0.5" style="stop-color:#fbf4a1;stop-opacity:undefined"/><stop  offset="1" style="stop-color:#8f5e25;stop-opacity:undefined"/>
    </linearGradient>
  <path fill="url(#CUSTOM_SVGID_undefined)" opacity="1" d=""/>
    <linearGradient id="CUSTOM_SVGID_undefined" gradientUnits="userSpaceOnUse" gradientTransform="matrix(1 0 0 1 -195 -14.949349958769155)"  x1="0" y1="0" x2="390" y2="29.89869991753831">
      <stop  offset="0" style="stop-color:#8f5e25;stop-opacity:undefined"/><stop  offset="0.5" style="stop-color:#fbf4a1;stop-opacity:undefined"/><stop  offset="1" style="stop-color:#8f5e25;stop-opacity:undefined"/>
    </linearGradient>
  <path fill="url(#CUSTOM_SVGID_undefined)" opacity="1" d="M-64.56 6.09C-65.57 6.43-67.71 7.15-69.85 7.15C-73.69 7.15-76.49 6.59-76.49-0.18C-76.49-6.90-73.69-7.51-69.85-7.51C-67.71-7.51-65.83-6.90-64.82-6.56L-63.95-7.96C-65.41-8.65-67.44-9.02-69.90-9.02C-75.09-9.02-78.45-7.67-78.45-0.18C-78.45 7.31-75.09 8.66-69.90 8.66C-67.44 8.66-65.14 8.18-63.69 7.49Z"/>
    <linearGradient id="CUSTOM_SVGID_undefined" gradientUnits="userSpaceOnUse" gradientTransform="matrix(1 0 0 1 -195 -14.949349958769155)"  x1="0" y1="0" x2="390" y2="29.89869991753831">
      <stop  offset="0" style="stop-color:#8f5e25;stop-opacity:undefined"/><stop  offset="0.5" style="stop-color:#fbf4a1;stop-opacity:undefined"/><stop  offset="1" style="stop-color:#8f5e25;stop-opacity:undefined"/>
    </linearGradient>
  <path fill="url(#CUSTOM_SVGID_undefined)" opacity="1" d="M-44.72 8.31L-44.72-8.67L-46.59-8.67L-46.59-1.50L-56.65-1.50L-56.65-8.67L-58.53-8.67L-58.53 8.31L-56.65 8.31L-56.65 0.06L-46.59 0.06L-46.59 8.31Z"/>
    <linearGradient id="CUSTOM_SVGID_undefined" gradientUnits="userSpaceOnUse" gradientTransform="matrix(1 0 0 1 -195 -14.949349958769155)"  x1="0" y1="0" x2="390" y2="29.89869991753831">
      <stop  offset="0" style="stop-color:#8f5e25;stop-opacity:undefined"/><stop  offset="0.5" style="stop-color:#fbf4a1;stop-opacity:undefined"/><stop  offset="1" style="stop-color:#8f5e25;stop-opacity:undefined"/>
    </linearGradient>
  <path fill="url(#CUSTOM_SVGID_undefined)" opacity="1" d="M-23.05 6.91C-24.18 6.62-24.63 5.75-24.63 3.10L-24.63 0.14L-24.63-0.29C-24.63-7.78-26.41-9.02-32.12-9.02C-34.58-9.02-36.75-8.60-38.21-7.91L-37.33-6.51C-36.33-6.85-34.32-7.51-32.17-7.51C-28.18-7.51-26.83-7.11-26.62-1.90L-32.39-1.90C-36.43-1.90-39.21-0.76-39.21 3.34C-39.21 7.44-36.43 8.58-32.39 8.58C-29.45 8.58-27.39 7.54-26.14 5.69C-25.85 7.41-25.11 8.10-23.34 8.34ZM-26.59-0.31C-26.59 4.45-27.33 7.04-32.36 7.04C-35.32 7.04-37.41 6.64-37.41 3.34C-37.41 0.03-35.35-0.37-32.39-0.37L-26.59-0.37Z"/>
    <linearGradient id="CUSTOM_SVGID_undefined" gradientUnits="userSpaceOnUse" gradientTransform="matrix(1 0 0 1 -195 -14.949349958769155)"  x1="0" y1="0" x2="390" y2="29.89869991753831">
      <stop  offset="0" style="stop-color:#8f5e25;stop-opacity:undefined"/><stop  offset="0.5" style="stop-color:#fbf4a1;stop-opacity:undefined"/><stop  offset="1" style="stop-color:#8f5e25;stop-opacity:undefined"/>
    </linearGradient>
  <path fill="url(#CUSTOM_SVGID_undefined)" opacity="1" d="M-3.76 8.31L-3.76-8.67L-5.53-8.67L-5.53 5.67L-15.56-8.67L-17.67-8.67L-17.67 8.31L-15.88 8.31L-15.88-6.08L-5.85 8.31Z"/>
    <linearGradient id="CUSTOM_SVGID_undefined" gradientUnits="userSpaceOnUse" gradientTransform="matrix(1 0 0 1 -195 -14.949349958769155)"  x1="0" y1="0" x2="390" y2="29.89869991753831">
      <stop  offset="0" style="stop-color:#8f5e25;stop-opacity:undefined"/><stop  offset="0.5" style="stop-color:#fbf4a1;stop-opacity:undefined"/><stop  offset="1" style="stop-color:#8f5e25;stop-opacity:undefined"/>
    </linearGradient>
  <path fill="url(#CUSTOM_SVGID_undefined)" opacity="1" d="M15.85 6.09C14.84 6.43 12.70 7.15 10.56 7.15C6.72 7.15 3.92 6.59 3.92-0.18C3.92-6.90 6.72-7.51 10.56-7.51C12.70-7.51 14.58-6.90 15.58-6.56L16.46-7.96C15.00-8.65 12.96-9.02 10.50-9.02C5.32-9.02 1.96-7.67 1.96-0.18C1.96 7.31 5.32 8.66 10.50 8.66C12.96 8.66 15.27 8.18 16.72 7.49Z"/>
    <linearGradient id="CUSTOM_SVGID_undefined" gradientUnits="userSpaceOnUse" gradientTransform="matrix(1 0 0 1 -195 -14.949349958769155)"  x1="0" y1="0" x2="390" y2="29.89869991753831">
      <stop  offset="0" style="stop-color:#8f5e25;stop-opacity:undefined"/><stop  offset="0.5" style="stop-color:#fbf4a1;stop-opacity:undefined"/><stop  offset="1" style="stop-color:#8f5e25;stop-opacity:undefined"/>
    </linearGradient>
  <path fill="url(#CUSTOM_SVGID_undefined)" opacity="1" d="M35.59 5.90C34.58 6.25 32.15 7.15 30.00 7.15C25.14 7.15 23.39 6.12 23.28 0.29L37.28 0.29L37.28-0.39C37.28-7.35 34.42-9.02 29.37-9.02C24.66-9.02 21.33-7.59 21.33 0.03C21.33 7.33 24.34 8.66 29.61 8.66C32.07 8.66 35.01 7.99 36.46 7.31ZM23.31-1.24C23.57-7.25 26.12-7.54 29.37-7.54C33.13-7.54 35.06-6.69 35.27-1.24Z"/>
    <linearGradient id="CUSTOM_SVGID_undefined" gradientUnits="userSpaceOnUse" gradientTransform="matrix(1 0 0 1 -195 -14.949349958769155)"  x1="0" y1="0" x2="390" y2="29.89869991753831">
      <stop  offset="0" style="stop-color:#8f5e25;stop-opacity:undefined"/><stop  offset="0.5" style="stop-color:#fbf4a1;stop-opacity:undefined"/><stop  offset="1" style="stop-color:#8f5e25;stop-opacity:undefined"/>
    </linearGradient>
  <path fill="url(#CUSTOM_SVGID_undefined)" opacity="1" d=""/>
    <linearGradient id="CUSTOM_SVGID_undefined" gradientUnits="userSpaceOnUse" gradientTransform="matrix(1 0 0 1 -195 -14.949349958769155)"  x1="0" y1="0" x2="390" y2="29.89869991753831">
      <stop  offset="0" style="stop-color:#8f5e25;stop-opacity:undefined"/><stop  offset="0.5" style="stop-color:#fbf4a1;stop-opacity:undefined"/><stop  offset="1" style="stop-color:#8f5e25;stop-opacity:undefined"/>
    </linearGradient>
  <path fill="url(#CUSTOM_SVGID_undefined)" opacity="1" d="M63.98 8.31L63.98-7.17L70.06-7.17L70.33-8.67L56.33-8.67L56.07-7.17L62.07-7.17L62.07 8.31Z"/>
    <linearGradient id="CUSTOM_SVGID_undefined" gradientUnits="userSpaceOnUse" gradientTransform="matrix(1 0 0 1 -195 -14.949349958769155)"  x1="0" y1="0" x2="390" y2="29.89869991753831">
      <stop  offset="0" style="stop-color:#8f5e25;stop-opacity:undefined"/><stop  offset="0.5" style="stop-color:#fbf4a1;stop-opacity:undefined"/><stop  offset="1" style="stop-color:#8f5e25;stop-opacity:undefined"/>
    </linearGradient>
  <path fill="url(#CUSTOM_SVGID_undefined)" opacity="1" d="M81.94-7.54C85.30-7.54 88.51-7.51 88.51-0.21C88.51 7.09 85.36 7.12 81.94 7.12C78.48 7.12 75.38 7.09 75.38-0.21C75.38-7.51 78.48-7.54 81.94-7.54ZM73.42-0.21C73.42 7.41 77.23 8.60 81.94 8.60C86.65 8.60 90.46 7.41 90.46-0.21C90.46-7.83 86.65-9.02 81.94-9.02C77.23-9.02 73.42-7.83 73.42-0.21Z"/>
    <linearGradient id="CUSTOM_SVGID_undefined" gradientUnits="userSpaceOnUse" gradientTransform="matrix(1 0 0 1 -195 -14.949349958769155)"  x1="0" y1="0" x2="390" y2="29.89869991753831">
      <stop  offset="0" style="stop-color:#8f5e25;stop-opacity:undefined"/><stop  offset="0.5" style="stop-color:#fbf4a1;stop-opacity:undefined"/><stop  offset="1" style="stop-color:#8f5e25;stop-opacity:undefined"/>
    </linearGradient>
  <path fill="url(#CUSTOM_SVGID_undefined)" opacity="1" d=""/>
    <linearGradient id="CUSTOM_SVGID_undefined" gradientUnits="userSpaceOnUse" gradientTransform="matrix(1 0 0 1 -195 -14.949349958769155)"  x1="0" y1="0" x2="390" y2="29.89869991753831">
      <stop  offset="0" style="stop-color:#8f5e25;stop-opacity:undefined"/><stop  offset="0.5" style="stop-color:#fbf4a1;stop-opacity:undefined"/><stop  offset="1" style="stop-color:#8f5e25;stop-opacity:undefined"/>
    </linearGradient>
  <path fill="url(#CUSTOM_SVGID_undefined)" opacity="1" d="M125.79 8.31L121.08 2.09C124.01 1.72 125.02 0.48 125.02-3.22C125.02-7.88 123.43-8.67 118.40-8.67L111.52-8.67L111.52 8.31L113.43 8.31L113.43 2.20L118.88 2.20L123.38 8.31ZM113.43 0.69L113.43-7.17L118.46-7.17C121.76-7.17 123.03-7.09 123.03-3.22C123.03 0.48 121.76 0.69 118.46 0.69Z"/>
    <linearGradient id="CUSTOM_SVGID_undefined" gradientUnits="userSpaceOnUse" gradientTransform="matrix(1 0 0 1 -195 -14.949349958769155)"  x1="0" y1="0" x2="390" y2="29.89869991753831">
      <stop  offset="0" style="stop-color:#8f5e25;stop-opacity:undefined"/><stop  offset="0.5" style="stop-color:#fbf4a1;stop-opacity:undefined"/><stop  offset="1" style="stop-color:#8f5e25;stop-opacity:undefined"/>
    </linearGradient>
  <path fill="url(#CUSTOM_SVGID_undefined)" opacity="1" d="M133.25 8.31L133.25-8.67L131.34-8.67L131.34 8.31Z"/>
    <linearGradient id="CUSTOM_SVGID_undefined" gradientUnits="userSpaceOnUse" gradientTransform="matrix(1 0 0 1 -195 -14.949349958769155)"  x1="0" y1="0" x2="390" y2="29.89869991753831">
      <stop  offset="0" style="stop-color:#8f5e25;stop-opacity:undefined"/><stop  offset="0.5" style="stop-color:#fbf4a1;stop-opacity:undefined"/><stop  offset="1" style="stop-color:#8f5e25;stop-opacity:undefined"/>
    </linearGradient>
  <path fill="url(#CUSTOM_SVGID_undefined)" opacity="1" d="M152.43-7.96C150.98-8.65 148.12-8.99 145.66-8.99C142.27-8.99 139.44-7.46 139.44-4.36C139.44-0.47 141.64-0.18 147.59 0.93C150.42 1.46 151.29 1.64 151.29 3.73C151.29 7.04 149.47 7.07 146.50 7.07C143.38 7.07 140.81 6.27 139.78 5.85C139.47 6.35 139.25 6.78 138.96 7.31C140.52 8.05 143.83 8.60 146.27 8.60C150.31 8.60 153.09 7.73 153.09 3.63C153.01-0.50 148.54-0.60 144.60-1.45C141.53-2.11 141.26-2.11 141.26-4.34C141.26-6.74 142.91-7.48 146.05-7.48C148.20-7.48 150.55-6.90 151.56-6.56Z"/>
    <linearGradient id="CUSTOM_SVGID_undefined" gradientUnits="userSpaceOnUse" gradientTransform="matrix(1 0 0 1 -195 -14.949349958769155)"  x1="0" y1="0" x2="390" y2="29.89869991753831">
      <stop  offset="0" style="stop-color:#8f5e25;stop-opacity:undefined"/><stop  offset="0.5" style="stop-color:#fbf4a1;stop-opacity:undefined"/><stop  offset="1" style="stop-color:#8f5e25;stop-opacity:undefined"/>
    </linearGradient>
  <path fill="url(#CUSTOM_SVGID_undefined)" opacity="1" d="M172.17 5.90C171.16 6.25 168.73 7.15 166.59 7.15C161.72 7.15 159.97 6.12 159.87 0.29L173.86 0.29L173.86-0.39C173.86-7.35 171.00-9.02 165.95-9.02C161.24-9.02 157.91-7.59 157.91 0.03C157.91 7.33 160.92 8.66 166.19 8.66C168.65 8.66 171.59 7.99 173.04 7.31ZM159.89-1.24C160.16-7.25 162.70-7.54 165.95-7.54C169.71-7.54 171.64-6.69 171.85-1.24Z"/>
    <linearGradient id="CUSTOM_SVGID_undefined" gradientUnits="userSpaceOnUse" gradientTransform="matrix(1 0 0 1 -195 -14.949349958769155)"  x1="0" y1="0" x2="390" y2="29.89869991753831">
      <stop  offset="0" style="stop-color:#8f5e25;stop-opacity:undefined"/><stop  offset="0.5" style="stop-color:#fbf4a1;stop-opacity:undefined"/><stop  offset="1" style="stop-color:#8f5e25;stop-opacity:undefined"/>
    </linearGradient>
  </g></svg>