<svg xmlns:xlink="http://www.w3.org/1999/xlink" xmlns="http://www.w3.org/2000/svg" fill="currentColor" viewBox="0 0 52 52" width="52" height="52"><path fill-rule="evenodd" d="M34.22 9C39.795 9 44 13.598 44 19.695v11.623c0 3.12-1.092 5.94-3.076 7.94C39.144 41.051 36.835 42 34.246 42H17.748c-2.583 0-4.89-.948-6.672-2.742-1.984-2-3.076-4.82-3.076-7.94V19.695C8 13.598 12.204 9 17.78 9zm0 2.539H17.78c-4.21 0-7.268 3.43-7.268 8.156v11.623c0 2.442.83 4.623 2.337 6.141 1.3 1.312 2.996 2.002 4.904 2.002H34.22c.003-.003.017 0 .026 0 1.911 0 3.605-.69 4.905-2.002 1.508-1.518 2.337-3.699 2.337-6.14V19.694c0-4.726-3.057-8.156-7.268-8.156Zm2.639 7.833a1.28 1.28 0 0 1-.183 1.785l-7.441 6.113a5.1 5.1 0 0 1-3.19 1.132 5.06 5.06 0 0 1-3.171-1.122l-7.51-6.12a1.28 1.28 0 0 1-.19-1.785 1.25 1.25 0 0 1 1.766-.191l7.503 6.113c.942.754 2.27.754 3.22-.007l7.427-6.103c.54-.445 1.33-.36 1.769.185" clip-rule="evenodd" fill="#000" stroke-width="1.2549px"></path></svg>